<svg width="18" height="18" viewBox="0 0 18 18" fill="none" xmlns="http://www.w3.org/2000/svg">
<g id="map 1" clip-path="url(#clip0_6_162)">
<g id="Group">
<g id="Group_2">
<path id="Vector" d="M16.812 0.797363C16.7189 0.797328 16.6271 0.818955 16.5439 0.860558L12.0033 3.13147L6.86887 0.849183C6.86047 0.845602 6.85089 0.84497 6.8419 0.841389C6.8188 0.832753 6.79517 0.825555 6.77119 0.819833C6.74735 0.813408 6.72313 0.808387 6.6987 0.804841C6.65003 0.800839 6.60113 0.800839 6.5525 0.804841C6.52807 0.808387 6.50384 0.813408 6.48 0.819833C6.45603 0.825555 6.4324 0.832753 6.4093 0.841389C6.40031 0.84497 6.39072 0.845567 6.38233 0.849183L0.989687 3.24593C0.773209 3.34205 0.633723 3.55671 0.633759 3.79355V16.9756C0.633864 17.1783 0.736415 17.3672 0.906375 17.4777C1.07637 17.5884 1.29078 17.6055 1.47618 17.5232L6.62556 15.2343L11.7749 17.5232C11.7839 17.5268 11.7935 17.5232 11.8025 17.5286C11.9476 17.5935 12.1141 17.5898 12.2561 17.5185C12.2657 17.5143 12.2764 17.5185 12.286 17.5119L17.0795 15.1151C17.2826 15.0136 17.4109 14.806 17.4108 14.5788V1.39684C17.411 1.06591 17.1429 0.797504 16.812 0.797363ZM6.0264 14.1894L1.83211 16.0534V4.18304L6.0264 2.31896V14.1894ZM11.4191 16.0534L7.22476 14.1894V2.31896L11.4191 4.183V16.0534ZM16.2125 14.2085L12.6174 16.0061V4.16383L16.2125 2.36629V14.2085Z" fill="#84829A"/>
</g>
</g>
</g>
<defs>
<clipPath id="clip0_6_162">
<rect width="16.7774" height="16.7774" fill="white" transform="translate(0.632553 0.795898)"/>
</clipPath>
</defs>
</svg>
